<svg xmlns="http://www.w3.org/2000/svg" viewBox="28 28 200 200" width="256" height="256" role="img" aria-label="Gluj-Bench application logo">
<!-- Both arcs share center (128,128) and radius 82. Arrowheads follow their end tangents. -->
<path d="M46 128 A82 82 0 0 1 175.033 60.830" fill="none" stroke="#63dfc6" stroke-width="14" stroke-linecap="round" stroke-linejoin="round"/>
<path d="M189.778 71.154 L162.375 68.447 L177.862 46.330 Z" fill="#63dfc6"/>
<path d="M174 128 H210 A82 82 0 0 1 50.945 156.046" fill="none" stroke="#79aaff" stroke-width="14" stroke-linecap="round" stroke-linejoin="round"/>
<path d="M44.789 139.132 L65.682 157.067 L40.311 166.301 Z" fill="#79aaff"/><g fill="none" stroke="#e5f2fa" stroke-width="7" stroke-linecap="round" stroke-linejoin="round">
<rect x="94" y="94" width="68" height="68" rx="12"/>
<path d="M116 84v10m24-10v10m-24 68v10m24-10v10M84 116h10m-10 24h10m68-24h10m-10 24h10"/>
</g><rect x="113" y="113" width="30" height="30" rx="6" fill="#e5f2fa"/></svg>
